{
  "accessors": [
    {
      "bufferView": 2,
      "componentType": 5126,
      "count": 20009,
      "max": [
        11.233535766601563,
        16.89105224609375,
        14.693161010742188
      ],
      "min": [
        -11.223945617675781,
        -0.6450595855712891,
        -40.758392333984375
      ],
      "type": "VEC3"
    },
    {
      "bufferView": 2,
      "byteOffset": 240108,
      "componentType": 5126,
      "count": 20009,
      "max": [
        0.9999988079071045,
        0.999697744846344,
        0.9998960494995117
      ],
      "min": [
        -0.9999993443489075,
        -0.9999573826789856,
        -0.9999658465385437
      ],
      "type": "VEC3"
    },
    {
      "bufferView": 1,
      "componentType": 5126,
      "count": 20009,
      "max": [
        0.9850108623504639,
        0.9894950985908508
      ],
      "min": [
        0.014589046128094196,
        0.011315643787384033
      ],
      "type": "VEC2"
    },
    {
      "bufferView": 0,
      "componentType": 5125,
      "count": 111693,
      "type": "SCALAR"
    }
  ],
  "asset": {
    "extras": {
      "author": "SDPM (https://sketchfab.com/sashtidharshanpm)",
      "license": "CC-BY-4.0 (http://creativecommons.org/licenses/by/4.0/)",
      "source": "https://sketchfab.com/3d-models/shark-56dd4ed9b4be45f3be79fca4508bb4c6",
      "title": "Shark"
    },
    "generator": "Sketchfab-11.94.0",
    "version": "2.0"
  },
  "bufferViews": [
    {
      "buffer": 0,
      "byteLength": 446772,
      "name": "floatBufferViews",
      "target": 34963
    },
    {
      "buffer": 0,
      "byteLength": 160072,
      "byteOffset": 446772,
      "byteStride": 8,
      "name": "floatBufferViews",
      "target": 34962
    },
    {
      "buffer": 0,
      "byteLength": 480216,
      "byteOffset": 606844,
      "byteStride": 12,
      "name": "floatBufferViews",
      "target": 34962
    }
  ],
  "buffers": [
    {
      "byteLength": 1087060,
      "uri": "scene.bin"
    }
  ],
  "images": [
    {
      "uri": "textures/material_baseColor.png"
    }
  ],
  "materials": [
    {
      "doubleSided": true,
      "name": "material",
      "pbrMetallicRoughness": {
        "baseColorTexture": {
          "index": 0
        }
      }
    }
  ],
  "meshes": [
    {
      "name": "Object_0",
      "primitives": [
        {
          "attributes": {
            "NORMAL": 1,
            "POSITION": 0,
            "TEXCOORD_0": 2
          },
          "indices": 3,
          "material": 0,
          "mode": 4
        }
      ]
    }
  ],
  "nodes": [
    {
      "children": [
        1
      ],
      "matrix": [
        1.0,
        0.0,
        0.0,
        0.0,
        0.0,
        2.220446049250313e-16,
        -1.0,
        0.0,
        0.0,
        1.0,
        2.220446049250313e-16,
        0.0,
        0.0,
        0.0,
        0.0,
        1.0
      ],
      "name": "Sketchfab_model"
    },
    {
      "children": [
        2
      ],
      "name": "root"
    },
    {
      "children": [
        3
      ],
      "matrix": [
        1.0,
        0.0,
        0.0,
        0.0,
        0.0,
        2.220446049250313e-16,
        1.0,
        0.0,
        0.0,
        -1.0,
        2.220446049250313e-16,
        0.0,
        0.0,
        0.0,
        0.0,
        1.0
      ],
      "name": "GLTF_SceneRootNode"
    },
    {
      "children": [
        4
      ],
      "matrix": [
        0.0991186797618866,
        0.0,
        0.0,
        0.0,
        0.0,
        0.0991186797618866,
        0.0,
        0.0,
        0.0,
        0.0,
        0.0991186797618866,
        0.0,
        -0.00010932390432571992,
        -0.18519327044487,
        0.9292359352111816,
        1.0
      ],
      "name": "node_id42_0"
    },
    {
      "mesh": 0,
      "name": "Object_4"
    }
  ],
  "samplers": [
    {
      "magFilter": 9729,
      "minFilter": 9987,
      "wrapS": 10497,
      "wrapT": 10497
    }
  ],
  "scene": 0,
  "scenes": [
    {
      "name": "Sketchfab_Scene",
      "nodes": [
        0
      ]
    }
  ],
  "textures": [
    {
      "sampler": 0,
      "source": 0
    }
  ]
}
